<?xml version="1.0" encoding="UTF-8"?><svg id="logo-8" xmlns="http://www.w3.org/2000/svg" viewBox="0 0 181.38 182"><defs><style>.cls-1{fill:#394149;}</style></defs><path class="cls-1" d="M129.75,81.95c-2.1,2.12-3.71,4.67-4.72,7.48-1,2.81-1.37,5.81-1.09,8.78l-.1-.1c.3,3.5-.18,7.01-1.38,10.31-1.2,3.29-3.11,6.29-5.59,8.77-2.48,2.48-5.47,4.39-8.77,5.59-3.29,1.2-6.81,1.68-10.31,1.38l.1,.1c-4.18-.39-8.38,.52-12.03,2.61-3.65,2.09-6.56,5.24-8.34,9.05-1.78,3.8-2.35,8.06-1.63,12.2,.73,4.14,2.71,7.95,5.68,10.92,2.97,2.97,6.79,4.95,10.92,5.67,4.14,.72,8.4,.15,12.2-1.64,3.8-1.79,6.96-4.7,9.04-8.35,2.08-3.65,2.99-7.85,2.6-12.03l.11,.1c-.3-3.5,.18-7.01,1.38-10.31,1.2-3.29,3.11-6.29,5.6-8.77,2.48-2.48,5.47-4.39,8.77-5.59,3.3-1.2,6.81-1.68,10.31-1.38l-.11-.1c3.42,.31,6.85-.25,10-1.63,3.14-1.38,5.89-3.52,7.98-6.24,2.09-2.72,3.46-5.92,3.99-9.31,.52-3.39,.18-6.86-.99-10.08-1.17-3.22-3.14-6.1-5.72-8.36s-5.69-3.83-9.04-4.57c-3.35-.74-6.83-.62-10.12,.34-3.29,.96-6.29,2.74-8.71,5.17h-.02Z"/><path class="cls-1" d="M88.8,111.17l-.11-.1c2.97,.3,5.97-.07,8.78-1.07,2.81-1,5.37-2.62,7.48-4.73,2.11-2.11,3.73-4.66,4.73-7.48,1-2.81,1.37-5.81,1.07-8.78l.11,.1c-.3-3.5,.18-7.01,1.38-10.31,1.2-3.29,3.11-6.29,5.6-8.77,2.48-2.48,5.47-4.39,8.77-5.59,3.3-1.21,6.81-1.68,10.31-1.38l-.11-.1c4.18,.39,8.38-.51,12.03-2.6,3.65-2.08,6.56-5.24,8.35-9.04,1.79-3.8,2.36-8.06,1.64-12.2-.72-4.14-2.7-7.95-5.67-10.92-2.97-2.97-6.78-4.95-10.92-5.67-4.14-.72-8.4-.15-12.2,1.64-3.8,1.79-6.96,4.7-9.04,8.35-2.08,3.65-2.99,7.85-2.6,12.03l-.1-.11c.3,3.5-.17,7.01-1.38,10.31-1.2,3.3-3.11,6.29-5.59,8.77-2.48,2.48-5.47,4.39-8.77,5.59-3.3,1.2-6.81,1.68-10.31,1.38l.1,.11c-2.97-.3-5.97,.07-8.78,1.07-2.81,1-5.37,2.62-7.48,4.73-2.11,2.11-3.73,4.66-4.73,7.48-1,2.81-1.37,5.81-1.07,8.78l-.1-.1c.29,3.5-.18,7.01-1.38,10.31-1.21,3.29-3.11,6.29-5.6,8.77-2.48,2.48-5.47,4.39-8.77,5.6-3.29,1.2-6.81,1.68-10.31,1.38l.1,.1c-4.18-.39-8.38,.51-12.03,2.6-3.65,2.08-6.56,5.24-8.35,9.04-1.79,3.8-2.36,8.06-1.64,12.2,.72,4.14,2.7,7.95,5.67,10.92,2.97,2.97,6.78,4.95,10.92,5.67,4.14,.72,8.4,.15,12.2-1.64,3.8-1.79,6.96-4.7,9.04-8.35,2.08-3.65,2.99-7.85,2.6-12.03l.11,.1c-.3-3.5,.18-7.01,1.38-10.31,1.2-3.29,3.11-6.29,5.59-8.77,2.48-2.48,5.47-4.39,8.77-5.59,3.3-1.2,6.81-1.68,10.31-1.38h0Z"/><path class="cls-1" d="M51.61,100.04c2.1-2.12,3.71-4.67,4.72-7.48,1-2.81,1.37-5.81,1.08-8.78l.11,.1c-.3-3.5,.18-7.02,1.38-10.31,1.21-3.3,3.12-6.29,5.6-8.77,2.48-2.48,5.48-4.39,8.77-5.59,3.3-1.2,6.82-1.67,10.31-1.38l-.11-.1c4.18,.39,8.38-.52,12.03-2.6,3.65-2.08,6.56-5.24,8.35-9.04,1.79-3.8,2.36-8.06,1.63-12.19-.72-4.14-2.7-7.95-5.67-10.92-2.97-2.97-6.78-4.95-10.92-5.67-4.14-.72-8.39-.15-12.19,1.63-3.8,1.79-6.96,4.7-9.04,8.35-2.08,3.65-2.99,7.85-2.6,12.03l-.1-.1c.3,3.5-.18,7.01-1.38,10.31-1.2,3.29-3.11,6.29-5.59,8.77-2.48,2.48-5.47,4.39-8.77,5.59-3.29,1.2-6.81,1.68-10.31,1.38l.1,.1c-3.42-.31-6.85,.25-9.99,1.63s-5.88,3.52-7.98,6.24c-2.09,2.72-3.46,5.92-3.99,9.31-.52,3.39-.18,6.86,.99,10.08,1.17,3.22,3.14,6.1,5.72,8.36,2.58,2.26,5.69,3.83,9.04,4.57,3.35,.74,6.83,.62,10.12-.34,3.29-.96,6.29-2.74,8.71-5.17h-.01Z"/></svg>